<mxfile host="app.diagrams.net" modified="2024-04-25T10:27:55.033Z" agent="Mozilla/5.0 (Windows NT 10.0; Win64; x64) AppleWebKit/537.36 (KHTML, like Gecko) Chrome/124.0.0.0 Safari/537.36 Edg/124.0.0.0" version="24.0.7" etag="ZCmPRxsyYMrPxZDwXUTy" type="github">
  <diagram name="Page-1" id="72Xx_0rBI69zWulpa8Jp">
    <mxGraphModel>
      <root>
        <mxCell id="0" />
        <mxCell id="1" parent="0" />
      </root>
    </mxGraphModel>
  </diagram>
</mxfile>
